<svg width="20" height="20" viewBox="0 0 20 20" fill="none" xmlns="http://www.w3.org/2000/svg">
<path d="M19.0781 13.9698C19.1594 13.5292 19.1594 13.0792 19.0781 12.6386L19.8844 12.1729C19.9781 12.1198 20.0187 12.0104 19.9875 11.9073C19.7781 11.2323 19.4188 10.6198 18.95 10.1136C18.8781 10.0354 18.7625 10.0167 18.6688 10.0698L17.8625 10.5354C17.5219 10.2448 17.1313 10.0198 16.7094 9.86982V8.93857C16.7094 8.83232 16.6344 8.73857 16.5312 8.7167C15.8344 8.56045 15.125 8.5667 14.4625 8.7167C14.3594 8.73857 14.2844 8.83232 14.2844 8.93857V9.86982C13.8625 10.0198 13.4719 10.2448 13.1313 10.5354L12.325 10.0698C12.2344 10.0167 12.1156 10.0354 12.0437 10.1136C11.575 10.6198 11.2156 11.2323 11.0063 11.9073C10.975 12.0104 11.0188 12.1198 11.1094 12.1729L11.9156 12.6386C11.8344 13.0792 11.8344 13.5292 11.9156 13.9698L11.1094 14.4354C11.0156 14.4886 10.975 14.5979 11.0063 14.7011C11.2156 15.3761 11.575 15.9854 12.0437 16.4948C12.1156 16.5729 12.2312 16.5917 12.325 16.5386L13.1313 16.0729C13.4719 16.3636 13.8625 16.5886 14.2844 16.7386V17.6698C14.2844 17.7761 14.3594 17.8698 14.4625 17.8917C15.1594 18.0479 15.8687 18.0417 16.5312 17.8917C16.6344 17.8698 16.7094 17.7761 16.7094 17.6698V16.7386C17.1313 16.5886 17.5219 16.3636 17.8625 16.0729L18.6688 16.5386C18.7594 16.5917 18.8781 16.5729 18.95 16.4948C19.4188 15.9886 19.7781 15.3761 19.9875 14.7011C20.0187 14.5979 19.975 14.4886 19.8844 14.4354L19.0781 13.9698ZM15.5 14.8198C14.6625 14.8198 13.9844 14.1386 13.9844 13.3042C13.9844 12.4698 14.6656 11.7886 15.5 11.7886C16.3344 11.7886 17.0156 12.4698 17.0156 13.3042C17.0156 14.1386 16.3375 14.8198 15.5 14.8198ZM7 10.3042C9.20938 10.3042 11 8.51357 11 6.3042C11 4.09482 9.20938 2.3042 7 2.3042C4.79063 2.3042 3 4.09482 3 6.3042C3 8.51357 4.79063 10.3042 7 10.3042ZM13.2875 17.3823C13.2156 17.3448 13.1438 17.3011 13.075 17.2604L12.8281 17.4042C12.6406 17.5104 12.4281 17.5698 12.2156 17.5698C11.875 17.5698 11.5469 17.4261 11.3125 17.1761C10.7406 16.5573 10.3031 15.8042 10.0562 15.0011C9.88437 14.4479 10.1156 13.8636 10.6156 13.5729L10.8625 13.4292C10.8594 13.3479 10.8594 13.2667 10.8625 13.1854L10.6156 13.0417C10.1156 12.7542 9.88437 12.1667 10.0562 11.6136C10.0844 11.5229 10.125 11.4323 10.1562 11.3417C10.0375 11.3323 9.92188 11.3042 9.8 11.3042H9.27812C8.58437 11.6229 7.8125 11.8042 7 11.8042C6.1875 11.8042 5.41875 11.6229 4.72188 11.3042H4.2C1.88125 11.3042 0 13.1854 0 15.5042V16.8042C0 17.6323 0.671875 18.3042 1.5 18.3042H12.5C12.8156 18.3042 13.1094 18.2042 13.35 18.0386C13.3125 17.9198 13.2875 17.7979 13.2875 17.6698V17.3823Z" fill="#AEAEAE"/>
</svg>
