<svg width="48" height="49" viewBox="0 0 48 49" fill="none"
    xmlns="http://www.w3.org/2000/svg">
    <path d="M43.5987 24.2524H40.7685C40.7685 24.2524 40.7685 24.2524 40.7685 24.2581H40.7288C38.7153 29.9979 34.3594 36.5261 25.3754 42.2035V42.6176V49.2082L28.1432 47.4216V43.9731C35.8227 38.5453 40.1673 32.5559 42.5551 27.0202H45.6292L46.6558 24.2581H43.6044C43.6044 24.2581 43.6044 24.2581 43.6044 24.2524H43.5987Z" fill="white"/>
    <path d="M22.5964 42.2035C13.618 36.5318 9.25645 30.0036 7.24297 24.2581H7.20327C7.20327 24.2581 7.20327 24.2581 7.20327 24.2524H4.37306C4.37306 24.2524 4.37306 24.2524 4.37306 24.2581H1.32166L2.34824 27.0202H5.42234C7.81015 32.5559 12.149 38.5396 19.8343 43.9731V47.4216L22.6021 49.2082V42.6176V42.2035H22.5964Z" fill="white"/>
    <path d="M44.909 18.7225C45.8902 12.0298 44.4723 7.28254 44.4723 7.28254C35.8569 2.83588 28.3474 0.725985 25.3754 0V2.61468V10.9351C24.9444 10.8047 24.0029 10.5948 23.9972 10.5948C23.9972 10.5948 23.05 10.8047 22.619 10.9351V2.50125V0.00567297C19.647 0.73733 12.1319 2.84155 3.52216 7.28821C3.52216 7.28821 2.10422 12.0355 3.08544 18.7281H0L0.57852 21.496H4.10068H6.40909C4.73592 14.5084 6.31834 9.26766 6.31834 9.26766C11.7179 6.47715 16.6126 4.7586 19.8738 3.78306V7.19746V12.0411C19.4201 12.7785 19.1535 13.6463 19.1535 14.5764C19.1535 15.3875 19.3577 16.1532 19.7094 16.8281C19.4144 17.3329 19.1535 17.8887 18.9267 18.4899L16.9302 16.4935V7.26552C16.9302 7.26552 16.0284 7.5718 15.5123 7.78733C15.1322 7.95181 14.1794 8.36584 14.1794 8.36584V17.6278L18.1496 21.5981C18.1213 21.7796 18.0986 21.9667 18.0816 22.1539H13.1074L10.2716 26.0901C10.6516 26.9352 11.0883 27.7859 11.5987 28.6537L14.2418 24.9047H18.0078C18.0589 25.8972 18.2007 26.8558 18.4049 27.7462L15.8923 30.2588V34.212C16.7203 35.0628 17.6335 35.9022 18.6431 36.736V31.4045L19.4314 30.6162C20.3446 32.4198 24.0029 35.5279 24.0029 35.5279C24.0029 35.5279 27.6612 32.4198 28.5743 30.6162L29.3627 31.4045V36.736C30.3723 35.9079 31.2854 35.0628 32.1135 34.212V30.2588L29.6009 27.7462C29.8108 26.8558 29.9469 25.9029 29.9979 24.9047H33.7016L36.407 28.6537C36.9175 27.7916 37.3542 26.9352 37.7342 26.0901L34.8416 22.1539H29.9242C29.9015 21.9667 29.8845 21.7796 29.8561 21.5981L33.8264 17.6278V8.3545C33.8264 8.3545 33.072 8.03121 32.5842 7.83837C32.1192 7.6512 31.0699 7.27687 31.0699 7.27687V16.4878L29.0734 18.4843C28.8466 17.8831 28.5857 17.3272 28.2907 16.8224C28.6424 16.1475 28.8466 15.3875 28.8466 14.5707C28.8466 13.6406 28.58 12.7728 28.1262 12.0355V3.77739C31.3875 4.75294 36.2822 6.47715 41.6817 9.26198C41.6817 9.26198 43.2642 14.5027 41.591 21.4903H43.8994H47.4216L48.0001 18.7225H44.9147H44.909Z" fill="white"/>
</svg>
