<svg width="20" height="20" viewBox="0 0 20 20" fill="none" xmlns="http://www.w3.org/2000/svg">
<path d="M19.0781 13.9701C19.1594 13.5294 19.1594 13.0794 19.0781 12.6388L19.8844 12.1732C19.9781 12.1201 20.0187 12.0107 19.9875 11.9076C19.7781 11.2326 19.4188 10.6201 18.95 10.1138C18.8781 10.0357 18.7625 10.0169 18.6688 10.0701L17.8625 10.5357C17.5219 10.2451 17.1313 10.0201 16.7094 9.87005V8.9388C16.7094 8.83255 16.6344 8.7388 16.5312 8.71693C15.8344 8.56068 15.125 8.56693 14.4625 8.71693C14.3594 8.7388 14.2844 8.83255 14.2844 8.9388V9.87005C13.8625 10.0201 13.4719 10.2451 13.1313 10.5357L12.325 10.0701C12.2344 10.0169 12.1156 10.0357 12.0437 10.1138C11.575 10.6201 11.2156 11.2326 11.0063 11.9076C10.975 12.0107 11.0188 12.1201 11.1094 12.1732L11.9156 12.6388C11.8344 13.0794 11.8344 13.5294 11.9156 13.9701L11.1094 14.4357C11.0156 14.4888 10.975 14.5982 11.0063 14.7013C11.2156 15.3763 11.575 15.9857 12.0437 16.4951C12.1156 16.5732 12.2312 16.5919 12.325 16.5388L13.1313 16.0732C13.4719 16.3638 13.8625 16.5888 14.2844 16.7388V17.6701C14.2844 17.7763 14.3594 17.8701 14.4625 17.8919C15.1594 18.0482 15.8687 18.0419 16.5312 17.8919C16.6344 17.8701 16.7094 17.7763 16.7094 17.6701V16.7388C17.1313 16.5888 17.5219 16.3638 17.8625 16.0732L18.6688 16.5388C18.7594 16.5919 18.8781 16.5732 18.95 16.4951C19.4188 15.9888 19.7781 15.3763 19.9875 14.7013C20.0187 14.5982 19.975 14.4888 19.8844 14.4357L19.0781 13.9701ZM15.5 14.8201C14.6625 14.8201 13.9844 14.1388 13.9844 13.3044C13.9844 12.4701 14.6656 11.7888 15.5 11.7888C16.3344 11.7888 17.0156 12.4701 17.0156 13.3044C17.0156 14.1388 16.3375 14.8201 15.5 14.8201ZM7 10.3044C9.20938 10.3044 11 8.5138 11 6.30443C11 4.09505 9.20938 2.30443 7 2.30443C4.79063 2.30443 3 4.09505 3 6.30443C3 8.5138 4.79063 10.3044 7 10.3044ZM13.2875 17.3826C13.2156 17.3451 13.1438 17.3013 13.075 17.2607L12.8281 17.4044C12.6406 17.5107 12.4281 17.5701 12.2156 17.5701C11.875 17.5701 11.5469 17.4263 11.3125 17.1763C10.7406 16.5576 10.3031 15.8044 10.0562 15.0013C9.88437 14.4482 10.1156 13.8638 10.6156 13.5732L10.8625 13.4294C10.8594 13.3482 10.8594 13.2669 10.8625 13.1857L10.6156 13.0419C10.1156 12.7544 9.88437 12.1669 10.0562 11.6138C10.0844 11.5232 10.125 11.4326 10.1562 11.3419C10.0375 11.3326 9.92188 11.3044 9.8 11.3044H9.27812C8.58437 11.6232 7.8125 11.8044 7 11.8044C6.1875 11.8044 5.41875 11.6232 4.72188 11.3044H4.2C1.88125 11.3044 0 13.1857 0 15.5044V16.8044C0 17.6326 0.671875 18.3044 1.5 18.3044H12.5C12.8156 18.3044 13.1094 18.2044 13.35 18.0388C13.3125 17.9201 13.2875 17.7982 13.2875 17.6701V17.3826Z" fill="#D2D2D2"/>
</svg>
